# AST/ASF file generated using VICON BodyLanguage
# -----------------------------------------------
:version 1.10
:name VICON
:units
  mass 1.0
  length 0.45
  angle deg
:documentation
   .ast/.asf automatically generated from VICON data using
   VICON BodyBuilder and BodyLanguage model FoxedUp or BRILLIANT.MOD
:root
   order TX TY TZ RX RY RZ
   axis XYZ
   position 0 0 0  
   orientation 0 0 0 
:bonedata
  begin
     id 1 
     name lhipjoint
     direction 0.711131 -0.61297 0.344326 
     length 2.29162 
     axis 0 0 0  XYZ
  end
  begin
     id 2 
     name lfemur
     direction 0.34202 -0.939693 0  
     length 6.71424  
     axis 0 0 20  XYZ
    dof rx ry rz
    limits (-160.0 20.0)
           (-70.0 70.0)
           (-60.0 70.0)
  end
  begin
     id 3 
     name ltibia
     direction 0.34202 -0.939693 0   
     length 6.7087   
     axis 0 0 20   XYZ
    dof rx
    limits (-10.0 170.0)
  end
  begin
     id 4 
     name lfoot
     direction 0.0230374 -0.0632947 0.997729   
     length 1.56743   
     axis -90 7.62852e-016 20   XYZ
    dof rx rz
    limits (-45.0 90.0)
           (-70.0 20.0)
  end
  begin
     id 5 
     name ltoes
     direction 1.53585e-011 -4.21885e-011 1   
     length 0.802914   
     axis -90 7.62852e-016 20   XYZ
    dof rx
    limits (-90.0 20.0)
  end
  begin
     id 6 
     name rhipjoint
     direction -0.733192 -0.592884 0.333043   
     length 2.36925  
     axis 0 0 0  XYZ 
  end
  begin
     id 7 
     name rfemur
     direction -0.34202 -0.939693 0   
     length 6.67027   
     axis 0 0 -20   XYZ
    dof rx ry rz
    limits (-160.0 20.0)
           (-70.0 70.0)
           (-70.0 60.0)
  end
  begin
     id 8 
     name rtibia
     direction -0.34202 -0.939693 0   
     length 6.6862   
     axis 0 0 -20   XYZ
    dof rx
    limits (-10.0 170.0)
 end
 begin
     id 9 
     name rfoot
     direction -0.0949739 -0.260939 0.960672   
     length 1.67698  
     axis -90 -7.62852e-016 -20   XYZ
    dof rx rz
    limits (-45.0 90.0)
           (-20.0 70.0)
  end
  begin
     id 10 
     name rtoes
     direction -1.5353e-011 -4.21868e-011 1   
     length 0.846298   
     axis -90 -7.62852e-016 -20   XYZ
    dof rx
    limits (-90.0 20.0)
  end
  begin
     id 11 
     name lowerback
     direction -0.0206828 0.999785 -0.00109866   
     length 2.04382   
     axis 0 0 0   XYZ
    dof rx ry rz
    limits (-20.0 45.0)
           (-30.0 30.0)
           (-30.0 30.0)
  end
  begin
     id 12 
     name upperback
     direction -0.0105003 0.999727 -0.0208904   
     length 2.04538   
     axis 0 0 0   XYZ
    dof rx ry rz
    limits (-20.0 45.0)
           (-30.0 30.0)
           (-30.0 30.0)
  end
  begin
     id 13 
     name thorax
     direction -0.000416255 0.999808 -0.0196023   
     length 2.0399   
     axis 0 0 0   XYZ
    dof rx ry rz
    limits (-20.0 45.0)
           (-30.0 30.0)
           (-30.0 30.0)
  end
  begin
     id 14 
     name lowerneck
     direction 0.0627861 0.989205 0.13241   
     length 1.46207   
     axis 0 0 0   XYZ
    dof rx ry rz
    limits (-20.0 45.0)
           (-30.0 30.0)
           (-30.0 30.0)
  end
  begin
     id 15 
     name upperneck
     direction 0.00627179 0.994526 0.104303   
     length 1.41419   
     axis 0 0 0   XYZ
    dof rx ry rz
    limits (-20.0 45.0)
           (-30.0 30.0)
           (-30.0 30.0)
  end
  begin
     id 16
     name head
     direction -0.00443838 0.999688 0.0245968  
     length 1.50718  
     axis 0 0 0   XYZ
    dof rx ry rz
    limits (-20.0 45.0)
           (-30.0 30.0)
           (-30.0 30.0)
  end
  begin
     id 17 
     name lclavicle
     direction 0.758742 0.650995 -0.0227258  
     length 2.86888  
     axis 0 0 0   XYZ
    dof ry rz
    limits (-20.0 10.0)
           (0.0 20.0)
  end
  begin
     id 18 
     name lhumerus
     direction 1 -4.48962e-011 1.06664e-027   
     length 4.65776   
     axis -180 -30 -90   XYZ
    dof rx ry rz
    limits (-60.0 90.0)
           (-90.0 90.0)
           (-90.0 90.0)
  end
  begin
     id 19
     name lradius
     direction 1 -4.48968e-011 1.40404e-026   
     length 3.55539   
     axis -180 -30 -90   XYZ
    dof rx
    limits (-10.0 170.0)
  end
  begin
     id 20
     name lwrist
     direction 1 -4.48976e-011 3.32647e-026   
     length 1.77769   
     axis -2.20186e-014 90 90   XYZ
    dof ry
    limits (-180.0 0.0)
 end
  begin
     id 21 
     name lhand
     direction 1 -4.48982e-011 6.65293e-026   
     length 0.707264   
     axis -4.24514e-014 90 90   XYZ
    dof rx rz
    limits (-90.0 90.0)
           (-45.0 45.0)
  end
  begin
     id 22 
     name lfingers
     direction 1 -4.48966e-011 1.33059e-025   
     length 0.570215   
     axis -8.49028e-014 90 90   XYZ
    dof rx
    limits (0.0 90.0)
  end
  begin
     id 23
     name lthumb
     direction 0.707107 -6.3493e-011 0.707107   
     length 0.818718   
     axis -90 45 2.85299e-015   XYZ
    dof rx rz
    limits (-45.0 45.0)
           (-45.0 45.0)
  end
  begin
     id 24 
     name rclavicle
     direction -0.870343 0.482028 -0.100759   
     length 3.2251  
     axis 0 0 0   XYZ 
    dof ry rz
    limits (-10.0 20.0)
           (-20.0 0.0)
  end
  begin
     id 25 
     name rhumerus
     direction -1 -4.48974e-011 -9.45849e-028  
     length 4.71925   
     axis -180 30 90   XYZ
    dof rx ry rz
    limits (-90.0 60.0)
           (-90.0 90.0)
           (-90.0 90.0)
  end
  begin
     id 26 
     name rradius
     direction -1 -4.48965e-011 1.17607e-026   
     length 3.5699   
     axis -180 30 90   XYZ
    dof rx
    limits (-10.0 170.0)
  end
  begin
     id 27 
     name rwrist
     direction -1 -4.48968e-011 3.32647e-026   
     length 1.78495   
     axis -2.20186e-014 -90 -90   XYZ
    dof ry
    limits (-180.0 0.0)
  end
  begin
     id 28
     name rhand
     direction -1 -4.48995e-011 6.65293e-026   
     length 0.507757   
     axis -4.24514e-014 -90 -90   XYZ
    dof rx rz
    limits (-90.0 90.0)
           (-45.0 45.0)
  end
  begin
     id 29
     name rfingers
     direction -1 -4.48864e-011 1.33059e-025   
     length 0.409367   
     axis -8.49028e-014 -90 -90   XYZ
    dof rx
    limits (0.0 90.0)
  end
  begin
     id 30
     name rthumb
     direction -0.707107 -6.3494e-011 0.707107   
     length 0.587771   
     axis -90 -45 -2.85299e-015   XYZ
    dof rx rz
    limits (-45.0 45.0)
           (-45.0 45.0)
  end
:hierarchy
  begin
    root lhipjoint rhipjoint lowerback
    lhipjoint lfemur
    lfemur ltibia
    ltibia lfoot
    lfoot ltoes
    rhipjoint rfemur
    rfemur rtibia
    rtibia rfoot
    rfoot rtoes
    lowerback upperback
    upperback thorax
    thorax lowerneck lclavicle rclavicle
    lowerneck upperneck
    upperneck head
    lclavicle lhumerus
    lhumerus lradius
    lradius lwrist
    lwrist lhand lthumb
    lhand lfingers
    rclavicle rhumerus
    rhumerus rradius
    rradius rwrist
    rwrist rhand rthumb
    rhand rfingers
  end

#!OML:ASF E:\Steps\Project 1\Capture day 1\Session 2\Subject.ASF
:FULLY-SPECIFIED
:DEGREES
50
root 16.4808 16.3228 21.1592 -155.175 -1.99549 176.355
lowerback -32.3879 -2.69416 -9.14675
upperback -1.08367 -0.86427 -0.350046
thorax 15.6796 -1.34041 4.08765
lowerneck -6.41691 -3.46666 0.0491321
upperneck 9.13759 -5.05489 2.34522
head 4.21679 -2.44262 0.484167
rclavicle -2.78299e-015 -2.16675e-014
rhumerus -34.7378 -22.6331 -77.3767
rradius 26.6196
rwrist 0.575622
rhand -6.60119 -55.1024
rfingers 7.12502
rthumb 19.2543 -84.1693
lclavicle -2.78299e-015 -2.16675e-014
lhumerus -28.9691 7.97842 81.4795
lradius 18.3534
lwrist -7.13125
lhand -22.8624 -13.0316
lfingers 7.12502
lthumb 3.57597 16.9182
rfemur -20.8373 5.16624 18.7375
rtibia 6.74602
rfoot -18.6207 0.795011
rtoes -14.513
lfemur -23.225 -10.9761 -23.1247
ltibia 10.7499
lfoot -8.83237 3.85376
ltoes -44.0517
51
root 16.4787 16.3197 21.1604 -155.178 -2.03396 176.389
lowerback -32.3809 -2.71487 -9.12191
upperback -1.09959 -0.906971 -0.328396
thorax 15.6641 -1.3574 4.08016
lowerneck -6.3023 -3.42379 -0.0600664
upperneck 9.07339 -4.99432 2.44688
head 4.17687 -2.41383 0.543488
rclavicle 6.83322e-015 2.5842e-014
rhumerus -34.7624 -22.6155 -77.3832
rradius 26.6218
rwrist 0.661212
rhand -6.5883 -55.0986
rfingers 7.12502
rthumb 19.2667 -84.1642
lclavicle 6.83322e-015 2.5842e-014
lhumerus -28.9878 7.94205 81.5173
lradius 18.3692
lwrist -7.02576
lhand -22.9297 -13.2646
lfingers 7.12502
lthumb 3.51095 16.6863
rfemur -20.7987 5.31491 18.7604
rtibia 6.70082
rfoot -18.6175 0.624164
rtoes -14.3095
lfemur -23.2115 -10.9963 -23.0986
ltibia 10.7254
lfoot -8.79888 3.85868
ltoes -44.3513
52
root 16.4773 16.3179 21.1632 -155.184 -2.12668 176.469
lowerback -32.3403 -2.70575 -9.03808
upperback -1.10729 -0.929149 -0.328192
thorax 15.641 -1.35933 4.02754
lowerneck -6.28362 -3.41418 -0.0913418
upperneck 9.00542 -4.98347 2.53368
head 4.15258 -2.40598 0.579459
rclavicle -4.24902e-015 -1.98785e-014
rhumerus -34.7121 -22.6292 -77.4592
rradius 26.5767
rwrist 0.543893
rhand -6.5775 -55.072
rfingers 7.12502
rthumb 19.2771 -84.1366
lclavicle -4.24902e-015 -1.98785e-014
lhumerus -29.0043 7.84136 81.5313
lradius 18.4245
lwrist -6.99304
lhand -23.0008 -13.4088
lfingers 7.12502
lthumb 3.44232 16.5431
rfemur -20.7937 5.35445 18.8608
rtibia 6.71647
rfoot -18.6126 0.558667
rtoes -14.0447
lfemur -23.2745 -10.9018 -23.0002
ltibia 10.8254
lfoot -8.83003 3.655
ltoes -43.5577
53
root 16.4695 16.3188 21.1588 -155.371 -2.15847 176.563
lowerback -32.2024 -2.63781 -8.85523
upperback -1.08696 -0.907331 -0.348368
thorax 15.6038 -1.33119 3.92188
lowerneck -6.25408 -3.41507 -0.104178
upperneck 9.08704 -4.99079 2.53769
head 4.17665 -2.41097 0.582463
rclavicle -1.17034e-014 2.98177e-014
rhumerus -34.67 -22.7386 -77.44
rradius 26.4457
rwrist 0.498694
rhand -6.5534 -54.9969
rfingers 7.12502
rthumb 19.3003 -84.0591
lclavicle -1.17034e-014 2.98177e-014
lhumerus -29.04 7.94329 81.4807
lradius 18.4074
lwrist -7.21024
lhand -23.0654 -13.4925
lfingers 7.12502
lthumb 3.37998 16.4605
rfemur -20.5542 5.61722 18.9024
rtibia 6.6946
rfoot -18.6698 0.354163
rtoes -14.0508
lfemur -23.0809 -10.9296 -22.9259
ltibia 10.8728
lfoot -8.94802 3.58974
ltoes -42.4972
54
root 16.4541 16.3237 21.1528 -155.752 -2.35965 176.69
lowerback -31.8671 -2.58193 -8.52284
upperback -1.04013 -0.959413 -0.367055
thorax 15.5226 -1.31805 3.71271
lowerneck -6.13529 -3.3338 -0.15695
upperneck 9.13003 -4.89134 2.61915
head 4.17121 -2.36307 0.626355
rclavicle -1.00883e-014 7.15625e-015
rhumerus -34.7036 -22.771 -77.4356
rradius 26.3924
rwrist 0.481534
rhand -6.54488 -54.9349
rfingers 7.12502
rthumb 19.3085 -83.9963
lclavicle -1.00883e-014 7.15625e-015
lhumerus -29.125 8.00399 81.4351
lradius 18.4331
lwrist -7.33114
lhand -23.0657 -13.3959
lfingers 7.12502
lthumb 3.37961 16.557
rfemur -20.0139 5.62507 18.9921
rtibia 6.54095
rfoot -18.7387 0.233171
rtoes -14.3041
lfemur -22.6231 -11.4213 -22.7959
ltibia 10.8121
lfoot -9.02972 3.92607
ltoes -42.0016
55
root 16.486 16.308 21.1607 -155.027 -1.69033 176.6
lowerback -32.5575 -2.62594 -9.15453
upperback -1.21718 -0.799149 -0.314105
thorax 15.584 -1.31889 4.15282
lowerneck -6.11816 -3.26034 -0.19991
upperneck 9.09917 -4.79416 2.69
head 4.15881 -2.31382 0.663619
rclavicle -5.14355e-015 -9.14409e-015
rhumerus -34.6948 -22.7594 -77.4695
rradius 26.3747
rwrist 0.517702
rhand -6.54285 -54.8403
rfingers 7.12502
rthumb 19.3104 -83.9016
lclavicle -5.14355e-015 -9.14409e-015
lhumerus -29.2134 7.93844 81.4496
lradius 18.5596
lwrist -7.18468
lhand -23.0766 -13.1417
lfingers 7.12502
lthumb 3.36913 16.8114
rfemur -21.1138 6.4216 18.9208
rtibia 6.94689
rfoot -18.7185 0.0616218
rtoes -14.5692
lfemur -23.454 -9.83886 -23.0018
ltibia 10.8956
lfoot -8.98742 3.01662
ltoes -42.5225
56
root 16.476 16.3141 21.1592 -155.291 -1.96677 176.729
lowerback -32.2995 -2.67317 -8.91775
upperback -1.17074 -0.957847 -0.249027
thorax 15.5545 -1.36354 4.03971
lowerneck -6.13521 -3.27508 -0.183283
upperneck 9.17539 -4.80927 2.58843
head 4.18587 -2.32491 0.625081
rclavicle 8.99501e-015 2.3059e-014
rhumerus -34.6608 -22.6827 -77.467
rradius 26.364
rwrist 0.623366
rhand -6.54297 -54.8046
rfingers 7.12502
rthumb 19.3103 -83.8658
lclavicle 8.99501e-015 2.3059e-014
lhumerus -29.2664 8.03777 81.4642
lradius 18.6313
lwrist -7.16889
lhand -23.0653 -13.0331
lfingers 7.12502
lthumb 3.38005 16.9199
rfemur -20.7513 6.26876 19.0765
rtibia 6.86799
rfoot -18.6983 -0.0562943
rtoes -14.2468
lfemur -23.1607 -10.2684 -22.8204
ltibia 10.8521
lfoot -8.95295 3.34269
ltoes -43.401
57
root 16.4847 16.3096 21.161 -155.14 -1.83074 176.781
lowerback -32.469 -2.69553 -9.05743
upperback -1.23545 -0.948327 -0.197019
thorax 15.5491 -1.37633 4.16977
lowerneck -6.03849 -3.29692 -0.124406
upperneck 9.3024 -4.84604 2.49144
head 4.20765 -2.34816 0.580883
rclavicle 1.15544e-014 5.68524e-014
rhumerus -34.7666 -22.4955 -77.5377
rradius 26.479
rwrist 0.59762
rhand -6.56852 -54.9041
rfingers 7.12502
rthumb 19.2858 -83.9678
lclavicle 1.15544e-014 5.68524e-014
lhumerus -29.3425 8.17037 81.3997
lradius 18.6417
lwrist -7.3803
lhand -23.1478 -13.0245
lfingers 7.12502
lthumb 3.30033 16.9297
rfemur -20.9971 6.6864 19.1421
rtibia 6.99782
rfoot -18.717 -0.291187
rtoes -14.2713
lfemur -23.3665 -9.72746 -22.8143
ltibia 10.8988
lfoot -8.89202 2.9992
ltoes -43.9961
58
root 16.4852 16.308 21.1638 -155.163 -1.94282 176.839
lowerback -32.3481 -2.71308 -8.97732
upperback -1.31081 -1.02311 -0.216796
thorax 15.4164 -1.39892 4.0756
lowerneck -5.969 -3.24789 -0.0961449
upperneck 9.4765 -4.79965 2.49331
head 4.2549 -2.32746 0.578911
rclavicle -6.36111e-015 1.19271e-015
rhumerus -34.8918 -22.4466 -77.6458
rradius 26.5463
rwrist 0.624996
rhand -6.56743 -54.9454
rfingers 7.12502
rthumb 19.2868 -84.009
lclavicle -6.36111e-015 1.19271e-015
lhumerus -29.4023 8.101 81.2964
lradius 18.6173
lwrist -7.43243
lhand -23.3315 -12.7699
lfingers 7.12502
lthumb 3.12299 17.187
rfemur -20.9494 6.82466 19.2281
rtibia 6.96954
rfoot -18.7041 -0.485928
rtoes -14.0982
lfemur -23.3974 -9.63674 -22.7509
ltibia 10.9588
lfoot -8.873 2.82392
ltoes -43.8337
59
root 16.4654 16.3101 21.155 -155.512 -2.14296 176.983
lowerback -32.1853 -2.69774 -8.65112
upperback -1.15765 -1.1008 -0.148157
thorax 15.5449 -1.40484 3.95255
lowerneck -6.01105 -3.20996 -0.177886
upperneck 9.45415 -4.72573 2.41083
head 4.2538 -2.29539 0.569502
rclavicle 1.36664e-015 -2.82274e-014
rhumerus -34.7078 -22.4443 -77.5839
rradius 26.5137
rwrist 0.735311
rhand -6.53173 -54.9224
rfingers 7.12502
rthumb 19.3211 -83.9825
lclavicle 1.36664e-015 -2.82274e-014
lhumerus -29.2434 8.27792 81.3935
lradius 18.557
lwrist -7.54954
lhand -23.428 -12.6461
lfingers 7.12502
lthumb 3.0298 17.3121
rfemur -20.4519 6.42926 19.3568
rtibia 6.81984
rfoot -18.6932 -0.257445
rtoes -13.45
lfemur -22.929 -10.2933 -22.571
ltibia 10.8096
lfoot -8.90608 3.31066
ltoes -43.7035
60
root 16.4572 16.3106 21.15 -155.684 -2.20353 177.07
lowerback -32.0968 -2.6491 -8.49708
upperback -1.08828 -1.08257 -0.135285
thorax 15.5887 -1.38261 3.89642
lowerneck -6.06059 -3.2142 -0.182941
upperneck 9.46394 -4.72784 2.39101
head 4.2668 -2.29635 0.562734
rclavicle 5.1684e-015 -3.57812e-014
rhumerus -34.698 -22.5278 -77.5115
rradius 26.5536
rwrist 0.84378
rhand -6.51186 -54.9325
rfingers 7.12502
rthumb 19.3402 -83.9908
lclavicle 5.1684e-015 -3.57812e-014
lhumerus -29.2508 8.28982 81.444
lradius 18.6601
lwrist -7.596
lhand -23.3768 -12.6884
lfingers 7.12502
lthumb 3.07926 17.2692
rfemur -20.2381 6.2807 19.444
rtibia 6.8151
rfoot -18.7235 -0.129634
rtoes -13.1955
lfemur -22.6901 -10.4655 -22.4892
ltibia 10.7331
lfoot -8.94155 3.41663
ltoes -43.2451
61
root 16.4553 16.3101 21.1489 -155.728 -2.2408 177.138
lowerback -32.0613 -2.62325 -8.43165
upperback -1.09232 -1.07652 -0.120454
thorax 15.5685 -1.37415 3.88171
lowerneck -6.02193 -3.20756 -0.182911
upperneck 9.42499 -4.71531 2.38171
head 4.24448 -2.29091 0.56133
rclavicle -8.52289e-015 1.15295e-014
rhumerus -34.7954 -22.6545 -77.4094
rradius 26.6252
rwrist 0.870907
rhand -6.49906 -54.9149
rfingers 7.12502
rthumb 19.3525 -83.9719
lclavicle -8.52289e-015 1.15295e-014
lhumerus -29.3096 7.95092 81.5645
lradius 18.7975
lwrist -7.26855
lhand -23.2946 -12.5624
lfingers 7.12502
lthumb 3.15857 17.3939
rfemur -20.1935 6.32404 19.5213
rtibia 6.8331
rfoot -18.7381 -0.148105
rtoes -13.0033
lfemur -22.6612 -10.4719 -22.4167
ltibia 10.7794
lfoot -8.95314 3.41245
ltoes -43.2246
62
root 16.4576 16.3084 21.1476 -155.696 -2.1829 177.186
lowerback -32.1113 -2.65438 -8.43102
upperback -1.11422 -1.12512 -0.0805753
thorax 15.5716 -1.39819 3.90301
lowerneck -5.9962 -3.12219 -0.260253
upperneck 9.37472 -4.59457 2.43404
head 4.22332 -2.23168 0.600181
rclavicle 6.21202e-016 9.54166e-015
rhumerus -34.8427 -22.4917 -77.4575
rradius 26.7165
rwrist 0.621809
rhand -6.50198 -54.8436
rfingers 7.12502
rthumb 19.3497 -83.9009
lclavicle 6.21202e-016 9.54166e-015
lhumerus -29.2972 7.74542 81.6419
lradius 18.7616
lwrist -6.87043
lhand -23.2699 -12.3639
lfingers 7.12502
lthumb 3.18248 17.5921
rfemur -20.241 6.411 19.6039
rtibia 6.84674
rfoot -18.7078 -0.198703
rtoes -13.2688
lfemur -22.6886 -10.2043 -22.3993
ltibia 10.7932
lfoot -8.95217 3.25056
ltoes -42.6455
63
root 16.4658 16.302 21.1507 -155.522 -2.0513 177.29
lowerback -32.2202 -2.62863 -8.44343
upperback -1.19075 -1.10105 -0.0656141
thorax 15.5243 -1.39271 3.93222
lowerneck -6.15083 -3.11891 -0.157682
upperneck 9.56885 -4.61024 2.40236
head 4.32066 -2.23634 0.566498
rclavicle -3.40419e-015 -4.29375e-014
rhumerus -34.9006 -22.3414 -77.5688
rradius 26.7633
rwrist 0.496623
rhand -6.55432 -54.8085
rfingers 7.12502
rthumb 19.2994 -83.8708
lclavicle -3.40419e-015 -4.29375e-014
lhumerus -29.2597 7.603 81.6248
lradius 18.6732
lwrist -6.69874
lhand -23.1649 -12.2977
lfingers 7.12502
lthumb 3.28384 17.6568
rfemur -20.4886 6.54603 19.8296
rtibia 6.91074
rfoot -18.6722 -0.165959
rtoes -13.587
lfemur -22.8647 -9.46941 -22.3676
ltibia 10.7886
lfoot -8.93392 2.7647
ltoes -43.9074
64
root 16.4622 16.3025 21.1508 -155.513 -2.11569 177.238
lowerback -32.2138 -2.70622 -8.49808
upperback -1.19531 -1.19001 -0.0170212
thorax 15.5292 -1.43665 3.97721
lowerneck -6.24966 -3.19654 -0.0668815
upperneck 9.72766 -4.7037 2.14468
head 4.38832 -2.28961 0.455625
rclavicle -5.19325e-015 3.24019e-014
rhumerus -34.8314 -22.1 -77.5762
rradius 26.7257
rwrist 0.461154
rhand -6.54435 -54.819
rfingers 7.12502
rthumb 19.309 -83.8804
lclavicle -5.19325e-015 3.24019e-014
lhumerus -29.2684 7.75152 81.6675
lradius 18.71
lwrist -6.69265
lhand -23.019 -12.3917
lfingers 7.12502
lthumb 3.42475 17.5605
rfemur -20.4579 6.43886 19.7931
rtibia 6.85608
rfoot -18.6804 -0.126901
rtoes -13.3809
lfemur -22.8566 -9.49439 -22.4435
ltibia 10.7771
lfoot -8.87422 2.75432
ltoes -43.9124
